<svg xmlns="http://www.w3.org/2000/svg">
    <symbol fill="none" id="thundercloud" viewBox="0 0 24 24">
        <g stroke-width="0"></g>
        <g stroke-linecap="round" stroke-linejoin="round"></g>
        <g>
            <path d="M13 11L10 16H15L12 21M6 16.4438C4.22194 15.5683 3 13.7502 3 11.6493C3 9.20008 4.8 6.9375 7.5 6.5C8.34694 4.48637 10.3514 3 12.6893 3C15.684 3 18.1317 5.32251 18.3 8.25C19.8893 8.94488 21 10.6503 21 12.4969C21 14.0582 20.206 15.4339 19 16.2417" stroke="#000000" stroke-width="2" stroke-linecap="round" stroke-linejoin="round"></path>
        </g>
    </symbol>

    <symbol id="rain-cloud" viewBox="0 0 24 24" fill="none" xmlns="http://www.w3.org/2000/svg">
        <g id="SVGRepo_bgCarrier" stroke-width="0"></g><g id="SVGRepo_tracerCarrier" stroke-linecap="round" stroke-linejoin="round"></g><g id="SVGRepo_iconCarrier"> <path d="M10.5 21L12 18M14.5 21L16 18M6.5 21L8 18M8.8 15C6.14903 15 4 12.9466 4 10.4137C4 8.31435 5.6 6.375 8 6C8.75283 4.27403 10.5346 3 12.6127 3C15.2747 3 17.4504 4.99072 17.6 7.5C19.0127 8.09561 20 9.55741 20 11.1402C20 13.2719 18.2091 15 16 15L8.8 15Z" stroke="#000000" stroke-width="2" stroke-linecap="round" stroke-linejoin="round"></path> </g>
    </symbol>

    <symbol id="cloud-with-sun" viewBox="0 0 24 24" fill="none" xmlns="http://www.w3.org/2000/svg">
        <g id="SVGRepo_bgCarrier" stroke-width="0"></g><g id="SVGRepo_tracerCarrier" stroke-linecap="round" stroke-linejoin="round"></g><g id="SVGRepo_iconCarrier"> <path d="M7.45508 2V3M11.3438 3.61084L10.6366 4.31795M4.27344 10.6821L3.56633 11.3892M1.95508 7.5H2.95508M3.56641 3.61084L4.27351 4.31795M6.50049 9.21251C6.38862 9.15163 6.2832 9.08038 6.18553 9.00006C5.73952 8.63325 5.45508 8.07714 5.45508 7.45459C5.45508 6.35002 6.35051 5.45459 7.45508 5.45459C8.21398 5.45459 8.87416 5.87727 9.21303 6.50006C9.29756 6.65541 9.3621 6.82321 9.40319 7M9.8 21C7.14903 21 5 18.9466 5 16.4137C5 14.3144 6.6 12.375 9 12C9.75283 10.274 11.5346 9 13.6127 9C16.2747 9 18.4504 10.9907 18.6 13.5C20.0127 14.0956 21 15.5574 21 17.1402C21 19.2719 19.2091 21 17 21L9.8 21Z" stroke="#000000" stroke-width="2" stroke-linecap="round" stroke-linejoin="round"></path> </g>
    </symbol>

    <symbol id="sun" viewBox="0 0 24 24" fill="none" xmlns="http://www.w3.org/2000/svg">
        <g id="SVGRepo_bgCarrier" stroke-width="0"></g><g id="SVGRepo_tracerCarrier" stroke-linecap="round" stroke-linejoin="round"></g><g id="SVGRepo_iconCarrier"> <path d="M12 3V4M12 20V21M4 12H3M6.31412 6.31412L5.5 5.5M17.6859 6.31412L18.5 5.5M6.31412 17.69L5.5 18.5001M17.6859 17.69L18.5 18.5001M21 12H20M16 12C16 14.2091 14.2091 16 12 16C9.79086 16 8 14.2091 8 12C8 9.79086 9.79086 8 12 8C14.2091 8 16 9.79086 16 12Z" stroke="#000000" stroke-width="2" stroke-linecap="round" stroke-linejoin="round"></path> </g>
    </symbol>
</svg>